<?xml version="1.0" encoding="UTF-8"?>
<svg xmlns="http://www.w3.org/2000/svg" xmlns:xlink="http://www.w3.org/1999/xlink" width="300px" height="65px" viewBox="0 0 301 65" version="1.1">
<g id="surface1">
<path style=" stroke:none;fill-rule:nonzero;fill:rgb(18.823529%,45.882353%,69.411765%);fill-opacity:1;" d="M 52.84375 13.402344 C 56.816406 13.402344 60.789062 13.402344 64.882812 13.402344 C 64.675781 14.992188 64.46875 16.582031 64.253906 18.21875 C 64.191406 18.710938 64.128906 19.207031 64.0625 19.714844 C 63.746094 22.109375 63.347656 24.433594 62.875 26.804688 C 65.304688 26.804688 67.730469 26.804688 70.234375 26.804688 C 70.320312 26.117188 70.410156 25.429688 70.503906 24.722656 C 70.621094 23.8125 70.742188 22.898438 70.859375 21.988281 C 70.917969 21.535156 70.976562 21.085938 71.035156 20.621094 C 71.355469 18.191406 71.746094 15.800781 72.238281 13.402344 C 75.65625 13.386719 79.074219 13.375 82.492188 13.367188 C 83.65625 13.363281 84.816406 13.355469 85.980469 13.351562 C 87.648438 13.34375 89.320312 13.339844 90.988281 13.335938 C 91.511719 13.332031 92.035156 13.328125 92.574219 13.324219 C 93.820312 13.324219 95.070312 13.359375 96.320312 13.402344 C 97.6875 14.769531 97.265625 17.582031 97.363281 19.476562 C 97.511719 22.109375 97.511719 22.109375 97.65625 24.792969 C 99.203125 21.035156 100.746094 17.273438 102.339844 13.402344 C 106.910156 13.351562 111.480469 13.316406 116.050781 13.292969 C 117.601562 13.28125 119.15625 13.269531 120.707031 13.25 C 122.945312 13.226562 125.183594 13.214844 127.421875 13.207031 C 128.113281 13.195312 128.800781 13.183594 129.511719 13.175781 C 133.644531 13.171875 136.710938 13.640625 140.464844 15.414062 C 142.835938 17.785156 143.09375 20.144531 143.351562 23.410156 C 143.265625 29.070312 141.609375 35.269531 137.523438 39.335938 C 132.84375 43.144531 127.445312 42.414062 121.738281 42.214844 C 121.296875 45.089844 120.855469 47.964844 120.398438 50.929688 C 116.425781 50.929688 112.453125 50.929688 108.359375 50.929688 C 108.847656 44.71875 109.964844 38.660156 111.078125 32.542969 C 111.359375 30.984375 111.640625 29.421875 111.921875 27.863281 C 112.097656 26.898438 112.269531 25.9375 112.449219 24.972656 C 112.785156 23.09375 113.042969 21.347656 113.042969 19.433594 C 111.542969 22.152344 110.042969 24.871094 108.542969 27.589844 C 108.035156 28.511719 107.523438 29.4375 107.011719 30.359375 C 106.277344 31.691406 105.546875 33.023438 104.8125 34.351562 C 104.585938 34.765625 104.355469 35.175781 104.125 35.597656 C 102.214844 39.066406 100.867188 41.714844 100.292969 45.652344 C 99.730469 49.457031 99.730469 49.457031 98.996094 50.929688 C 95.023438 50.929688 91.050781 50.929688 86.957031 50.929688 C 87.257812 49.460938 87.5625 47.996094 87.875 46.488281 C 89.289062 37.53125 86.3125 28.113281 84.28125 19.433594 C 83.167969 23.074219 82.425781 26.695312 81.789062 30.445312 C 81.632812 31.328125 81.632812 31.328125 81.476562 32.226562 C 81.15625 34.089844 80.835938 35.953125 80.515625 37.820312 C 80.296875 39.089844 80.078125 40.359375 79.859375 41.628906 C 79.324219 44.726562 78.792969 47.828125 78.261719 50.929688 C 74.285156 50.929688 70.3125 50.929688 66.21875 50.929688 C 66.550781 46.511719 67.023438 42.453125 68.226562 38.195312 C 65.578125 38.195312 62.929688 38.195312 60.199219 38.195312 C 60.117188 39.425781 60.035156 40.65625 59.949219 41.921875 C 59.726562 45.238281 59.136719 47.617188 58.191406 50.929688 C 54.441406 50.929688 50.6875 50.929688 46.820312 50.929688 C 47.246094 43.042969 48.761719 35.390625 50.207031 27.640625 C 50.464844 26.257812 50.71875 24.875 50.972656 23.492188 C 51.59375 20.125 52.214844 16.765625 52.84375 13.402344 Z M 125.082031 23.453125 C 124.214844 26.355469 123.515625 29.160156 123.074219 32.164062 C 126.148438 32.414062 126.148438 32.414062 129.011719 31.496094 C 130.214844 29.355469 130.234375 27.230469 130.433594 24.792969 C 128.273438 23.351562 127.566406 23.320312 125.082031 23.453125 Z M 125.082031 23.453125 "/>
<path style=" stroke:none;fill-rule:nonzero;fill:rgb(98.039216%,98.823529%,99.215686%);fill-opacity:1;" d="M 12.792969 -0.0429688 C 13.648438 -0.0351562 14.507812 -0.03125 15.390625 -0.0234375 C 16.050781 -0.015625 16.710938 -0.0078125 17.390625 0 C 33.847656 36.132812 33.847656 36.132812 35.449219 44.898438 C 28.246094 48.9375 21.757812 50.421875 13.546875 50.46875 C 12.953125 50.472656 12.359375 50.472656 11.746094 50.476562 C 8.066406 50.4375 4.871094 49.949219 1.335938 48.917969 C -2.148438 33.503906 -1.167969 14.703125 6.6875 0.671875 C 8.699219 -0.335938 10.5625 -0.0625 12.792969 -0.0429688 Z M 12.792969 -0.0429688 "/>
<path style=" stroke:none;fill-rule:nonzero;fill:rgb(18.823529%,45.882353%,69.411765%);fill-opacity:1;" d="M 174.578125 13.402344 C 177.433594 13.351562 180.289062 13.316406 183.144531 13.292969 C 184.113281 13.28125 185.082031 13.269531 186.050781 13.25 C 196.136719 13.074219 196.136719 13.074219 200.667969 15.414062 C 203.042969 17.792969 203.285156 19.929688 203.507812 23.203125 C 203.433594 28.203125 201.835938 33 198.660156 36.855469 C 197.234375 37.628906 197.234375 37.628906 195.984375 38.195312 C 196.347656 39.320312 196.347656 39.320312 196.714844 40.46875 C 197.03125 41.457031 197.34375 42.445312 197.65625 43.429688 C 197.816406 43.925781 197.976562 44.421875 198.140625 44.929688 C 198.792969 46.996094 199.328125 48.746094 199.328125 50.929688 C 195.136719 50.929688 190.941406 50.929688 186.621094 50.929688 C 184.363281 44.144531 184.363281 44.144531 183.945312 40.207031 C 183.28125 40.207031 182.621094 40.207031 181.9375 40.207031 C 181.90625 40.644531 181.871094 41.082031 181.839844 41.53125 C 181.789062 42.117188 181.738281 42.703125 181.6875 43.304688 C 181.640625 43.878906 181.59375 44.457031 181.546875 45.046875 C 181.269531 46.90625 181.269531 46.90625 179.929688 50.929688 C 176.179688 50.929688 172.425781 50.929688 168.558594 50.929688 C 168.957031 45.964844 169.570312 41.132812 170.464844 36.242188 C 170.582031 35.582031 170.699219 34.921875 170.820312 34.242188 C 171.195312 32.167969 171.570312 30.09375 171.945312 28.019531 C 172.203125 26.597656 172.457031 25.179688 172.710938 23.761719 C 173.332031 20.308594 173.953125 16.855469 174.578125 13.402344 Z M 184.613281 23.453125 C 184.394531 25.664062 184.171875 27.875 183.945312 30.15625 C 186.230469 30.265625 186.230469 30.265625 188.625 30.15625 C 190.34375 28.433594 190.324219 27.15625 190.632812 24.792969 C 188.335938 23.257812 187.296875 23.335938 184.613281 23.453125 Z M 184.613281 23.453125 "/>
<path style=" stroke:none;fill-rule:nonzero;fill:rgb(18.823529%,45.882353%,69.411765%);fill-opacity:1;" d="M 248.15625 12.523438 C 248.609375 12.511719 249.058594 12.5 249.523438 12.488281 C 253.546875 12.484375 256.59375 13.445312 259.738281 16 C 263.234375 20.410156 262.6875 26.160156 262.203125 31.496094 C 261.179688 38.441406 258.882812 44.289062 253.84375 49.210938 C 249.851562 51.710938 246.039062 51.824219 241.46875 51.808594 C 240.882812 51.816406 240.296875 51.828125 239.691406 51.839844 C 236.210938 51.84375 233.773438 51.542969 230.765625 49.585938 C 227.175781 45.699219 227.140625 42.125 227.234375 37.03125 C 227.554688 30.03125 229.371094 21.375 234.53125 16.363281 C 238.585938 13.203125 243.101562 12.5 248.15625 12.523438 Z M 242.324219 24.449219 C 241.117188 26.824219 240.75 29.171875 240.339844 31.789062 C 240.210938 32.542969 240.210938 32.542969 240.078125 33.3125 C 239.644531 35.921875 239.460938 38.195312 239.460938 40.875 C 241.890625 40.875 244.316406 40.875 246.820312 40.875 C 248.84375 35.25 250.492188 29.492188 250.164062 23.453125 C 249.09375 23.382812 248.019531 23.328125 246.945312 23.285156 C 246.050781 23.238281 246.050781 23.238281 245.132812 23.191406 C 243.4375 23.308594 243.4375 23.308594 242.324219 24.449219 Z M 242.324219 24.449219 "/>
<path style=" stroke:none;fill-rule:nonzero;fill:rgb(18.823529%,45.882353%,69.411765%);fill-opacity:1;" d="M 145.816406 13.402344 C 154.207031 13.402344 162.59375 13.402344 171.234375 13.402344 C 169.898438 19.433594 169.898438 19.433594 168.558594 23.453125 C 164.367188 23.453125 160.171875 23.453125 155.851562 23.453125 C 155.851562 24.78125 155.851562 26.105469 155.851562 27.472656 C 159.382812 27.695312 162.914062 27.917969 166.554688 28.144531 C 166.113281 31.019531 165.671875 33.894531 165.214844 36.855469 C 161.464844 36.855469 157.710938 36.855469 153.84375 36.855469 C 153.625 38.183594 153.402344 39.507812 153.175781 40.875 C 157.589844 40.875 162.003906 40.875 166.554688 40.875 C 165.96875 47.914062 165.96875 47.914062 165.214844 50.929688 C 156.828125 50.929688 148.441406 50.929688 139.796875 50.929688 C 140.25 45.9375 140.804688 41.148438 141.703125 36.242188 C 141.820312 35.582031 141.9375 34.921875 142.058594 34.242188 C 142.429688 32.167969 142.808594 30.09375 143.183594 28.019531 C 143.4375 26.597656 143.695312 25.179688 143.949219 23.761719 C 144.566406 20.308594 145.191406 16.855469 145.816406 13.402344 Z M 145.816406 13.402344 "/>
<path style=" stroke:none;fill-rule:nonzero;fill:rgb(18.823529%,45.882353%,69.411765%);fill-opacity:1;" d="M 207.355469 13.402344 C 215.300781 13.402344 223.25 13.402344 231.4375 13.402344 C 229.429688 20.773438 229.429688 20.773438 228.089844 23.453125 C 226.308594 23.765625 224.78125 23.917969 222.992188 23.957031 C 222.519531 23.976562 222.046875 23.996094 221.558594 24.015625 C 220.390625 24.0625 219.226562 24.09375 218.058594 24.125 C 217.835938 25.449219 217.617188 26.777344 217.390625 28.144531 C 220.480469 28.144531 223.570312 28.144531 226.753906 28.144531 C 225.5 36.019531 225.5 36.019531 224.746094 37.527344 C 221.65625 37.527344 218.566406 37.527344 215.382812 37.527344 C 215.175781 38.992188 214.96875 40.457031 214.753906 41.964844 C 214.332031 44.960938 213.871094 47.941406 213.375 50.929688 C 209.402344 50.929688 205.429688 50.929688 201.335938 50.929688 C 201.730469 45.964844 202.347656 41.132812 203.242188 36.242188 C 203.359375 35.582031 203.476562 34.921875 203.597656 34.242188 C 203.96875 32.167969 204.34375 30.09375 204.722656 28.019531 C 204.976562 26.597656 205.230469 25.179688 205.484375 23.761719 C 206.105469 20.308594 206.730469 16.855469 207.355469 13.402344 Z M 207.355469 13.402344 "/>
<path style=" stroke:none;fill-rule:nonzero;fill:rgb(18.823529%,45.882353%,69.411765%);fill-opacity:1;" d="M 282.941406 13.402344 C 286.914062 13.402344 290.886719 13.402344 294.980469 13.402344 C 294.421875 16.777344 293.863281 20.152344 293.300781 23.523438 C 293.113281 24.671875 292.921875 25.820312 292.730469 26.964844 C 292.457031 28.617188 292.183594 30.269531 291.910156 31.921875 C 291.824219 32.433594 291.742188 32.941406 291.65625 33.46875 C 291.242188 35.949219 290.789062 38.410156 290.296875 40.875 C 293.828125 40.875 297.359375 40.875 301 40.875 C 300.679688 44.300781 300.335938 47.550781 299.664062 50.929688 C 291.9375 50.929688 284.210938 50.929688 276.25 50.929688 C 276.785156 47.605469 277.320312 44.28125 277.855469 40.960938 C 278.035156 39.835938 278.21875 38.710938 278.398438 37.585938 C 279.355469 31.621094 280.328125 25.65625 281.359375 19.703125 C 281.480469 18.980469 281.480469 18.980469 281.605469 18.242188 C 282.191406 14.898438 282.191406 14.898438 282.941406 13.402344 Z M 282.941406 13.402344 "/>
<path style=" stroke:none;fill-rule:nonzero;fill:rgb(18.823529%,45.882353%,69.411765%);fill-opacity:1;" d="M 266.886719 13.402344 C 270.859375 13.402344 274.832031 13.402344 278.925781 13.402344 C 278.046875 21.011719 276.890625 28.523438 275.523438 36.0625 C 275.199219 37.851562 274.882812 39.640625 274.566406 41.433594 C 274.359375 42.574219 274.15625 43.710938 273.949219 44.851562 C 273.808594 45.652344 273.808594 45.652344 273.660156 46.472656 C 272.984375 50.179688 272.984375 50.179688 272.238281 50.929688 C 270.324219 50.976562 268.425781 50.988281 266.511719 50.96875 C 265.972656 50.964844 265.433594 50.964844 264.875 50.960938 C 263.539062 50.953125 262.203125 50.941406 260.867188 50.929688 C 261.242188 45.972656 261.878906 41.128906 262.769531 36.242188 C 262.890625 35.582031 263.007812 34.921875 263.128906 34.242188 C 263.5 32.167969 263.875 30.09375 264.253906 28.019531 C 264.507812 26.597656 264.761719 25.179688 265.015625 23.761719 C 265.636719 20.308594 266.261719 16.855469 266.886719 13.402344 Z M 266.886719 13.402344 "/>
<path style=" stroke:none;fill-rule:nonzero;fill:rgb(21.960784%,47.843137%,70.588235%);fill-opacity:1;" d="M 12.792969 -0.0429688 C 13.648438 -0.0351562 14.507812 -0.03125 15.390625 -0.0234375 C 16.050781 -0.015625 16.710938 -0.0078125 17.390625 0 C 33.847656 36.132812 33.847656 36.132812 35.449219 44.898438 C 28.246094 48.9375 21.757812 50.421875 13.546875 50.46875 C 12.953125 50.472656 12.359375 50.472656 11.746094 50.476562 C 8.066406 50.4375 4.871094 49.949219 1.335938 48.917969 C -2.148438 33.503906 -1.167969 14.703125 6.6875 0.671875 C 8.699219 -0.335938 10.5625 -0.0625 12.792969 -0.0429688 Z M 9.363281 2.011719 C 7.046875 6.324219 5.367188 10.707031 4.011719 15.414062 C 3.890625 15.828125 3.769531 16.242188 3.640625 16.667969 C 2.390625 21.453125 2.503906 26.203125 2.550781 31.117188 C 2.550781 31.960938 2.550781 32.804688 2.550781 33.675781 C 1.972656 41.367188 1.972656 41.367188 4.011719 48.246094 C 8.652344 49.21875 13.339844 48.960938 18.058594 48.917969 C 18.058594 45.601562 18.058594 42.285156 18.058594 38.867188 C 18.941406 38.867188 19.824219 38.867188 20.734375 38.867188 C 20.726562 39.320312 20.71875 39.769531 20.710938 40.238281 C 20.707031 40.835938 20.699219 41.433594 20.695312 42.050781 C 20.6875 42.640625 20.679688 43.230469 20.671875 43.839844 C 20.730469 45.421875 20.957031 46.738281 21.40625 48.246094 C 26.105469 47.945312 29.824219 46.828125 34.113281 44.898438 C 33.179688 39.777344 31.417969 35.292969 29.347656 30.53125 C 29.023438 29.773438 28.695312 29.011719 28.359375 28.226562 C 25.648438 21.921875 22.882812 15.640625 20.066406 9.382812 C 19.847656 9.382812 19.625 9.382812 19.398438 9.382812 C 19.300781 19.117188 19.300781 19.117188 20.066406 28.8125 C 19.183594 28.8125 18.300781 28.8125 17.390625 28.8125 C 17.375 28.214844 17.359375 27.617188 17.339844 27.003906 C 17.277344 24.757812 17.210938 22.515625 17.140625 20.269531 C 17.113281 19.304688 17.085938 18.335938 17.058594 17.371094 C 16.914062 12.222656 16.730469 7.121094 16.054688 2.011719 C 13.847656 2.011719 11.636719 2.011719 9.363281 2.011719 Z M 9.363281 2.011719 "/>
<path style=" stroke:none;fill-rule:nonzero;fill:rgb(18.823529%,45.882353%,69.411765%);fill-opacity:1;" d="M 38.125 46.238281 C 37.492188 49.210938 36.457031 51.597656 34.113281 53.609375 C 31.898438 54.179688 29.820312 54.054688 27.550781 53.902344 C 26.957031 53.878906 26.367188 53.859375 25.757812 53.835938 C 24.304688 53.78125 22.855469 53.699219 21.40625 53.609375 C 21.625 54.492188 21.847656 55.378906 22.074219 56.289062 C 22.515625 56.066406 22.957031 55.847656 23.410156 55.617188 C 25.417969 55.492188 25.417969 55.492188 27.425781 55.617188 C 27.867188 56.0625 28.308594 56.503906 28.761719 56.957031 C 26.640625 58.222656 24.503906 59.457031 22.367188 60.6875 C 21.765625 61.042969 21.167969 61.402344 20.550781 61.769531 C 15.503906 64.640625 15.503906 64.640625 12.648438 64.304688 C 11.683594 63.984375 11.683594 63.984375 10.703125 63.660156 C 10.480469 63.21875 10.261719 62.773438 10.035156 62.320312 C 12.683594 60.992188 15.332031 59.664062 18.058594 58.300781 C 18.058594 56.75 18.058594 55.203125 18.058594 53.609375 C 17.140625 53.570312 17.140625 53.570312 16.199219 53.53125 C 11.511719 53.28125 7.621094 52.898438 3.34375 50.929688 C 5.925781 50.023438 8.222656 50.40625 10.910156 50.675781 C 18.121094 51.265625 24.734375 49.78125 31.527344 47.328125 C 33.683594 46.601562 35.855469 46.238281 38.125 46.238281 Z M 38.125 46.238281 "/>
</g>
</svg>
