<?xml version="1.0" standalone="no"?>
<!DOCTYPE svg PUBLIC "-//W3C//DTD SVG 20010904//EN"
 "http://www.w3.org/TR/2001/REC-SVG-20010904/DTD/svg10.dtd">
<svg version="1.0" xmlns="http://www.w3.org/2000/svg"
 width="200.000000pt" height="200.000000pt" viewBox="0 0 200.000000 200.000000"
 preserveAspectRatio="xMidYMid meet">

<g transform="translate(0.000000,200.000000) scale(0.100000,-0.100000)"
fill="#000000" stroke="none">
<path d="M692 1873 c-28 -5 -45 -42 -109 -231 -82 -246 -95 -317 -100 -572 -4
-171 -1 -254 11 -345 25 -186 20 -177 107 -198 103 -26 359 -28 480 -4 167 33
349 105 349 138 0 63 -115 359 -332 854 -80 182 -148 338 -151 348 -6 15 -20
17 -119 16 -62 -1 -123 -4 -136 -6z m228 -100 c0 -106 20 -593 26 -640 5 -43
6 -43 46 -43 l40 0 -6 48 c-8 69 -29 512 -24 517 4 4 289 -634 338 -760 33
-83 80 -222 80 -235 0 -19 -298 -120 -354 -120 -13 0 -16 13 -16 68 0 37 -3
97 -7 135 l-6 67 -38 0 c-26 0 -37 -4 -34 -12 2 -7 6 -70 10 -140 l6 -127 -47
-7 c-49 -7 -250 10 -320 27 l-41 11 -12 68 c-38 230 -38 515 -1 705 21 107 97
352 138 447 23 52 27 53 155 56 l67 2 0 -67z"/>
<path d="M1460 580 c-31 -4 -103 -24 -160 -44 -219 -78 -416 -102 -609 -72
-57 9 -106 14 -108 13 -10 -11 294 -67 363 -67 31 0 32 -1 38 -57 4 -32 10
-66 12 -76 5 -14 -17 -28 -113 -74 l-118 -57 48 -15 49 -15 196 99 c169 84
193 99 172 106 -40 12 -79 10 -108 -5 -15 -7 -37 -17 -50 -21 -22 -6 -23 -5
-20 52 l3 58 120 2 c66 2 147 5 181 8 l61 6 52 81 c28 44 51 81 49 82 -2 1
-28 -1 -58 -4z"/>
</g>
</svg>
